<?xml version="1.0" standalone="no"?>
<!DOCTYPE svg PUBLIC "-//W3C//DTD SVG 20010904//EN"
 "http://www.w3.org/TR/2001/REC-SVG-20010904/DTD/svg10.dtd">
<svg version="1.0" xmlns="http://www.w3.org/2000/svg"
 width="800.000000pt" height="800.000000pt" viewBox="0 0 800.000000 800.000000"
 preserveAspectRatio="xMidYMid meet">
<metadata>
Created by potrace 1.14, written by Peter Selinger 2001-2017
</metadata>
<g transform="translate(0.000000,800.000000) scale(0.100000,-0.100000)"
fill="#000000" stroke="none">
<path d="M2350 5400 c-14 -3 -25 -10 -26 -15 -2 -22 -23 -61 -45 -85 -13 -14
-30 -38 -36 -53 -17 -38 -31 -34 -35 11 -3 34 -6 37 -35 40 -18 2 -33 -1 -33
-7 0 -6 -26 -39 -58 -73 -38 -42 -65 -83 -81 -123 -36 -95 -44 -107 -83 -134
-21 -14 -40 -33 -43 -41 -2 -8 -22 -34 -44 -58 -33 -36 -44 -42 -68 -38 -23 5
-31 0 -45 -25 -11 -18 -34 -37 -58 -46 -33 -13 -44 -25 -66 -72 -44 -97 -49
-106 -65 -109 -22 -4 -52 22 -54 49 -4 60 -37 89 -84 74 -18 -5 -41 -44 -48
-79 -2 -11 -10 -33 -18 -49 -8 -17 -15 -46 -15 -66 0 -27 -9 -45 -34 -71 -57
-61 -65 -85 -51 -165 7 -38 10 -77 7 -85 -7 -19 -31 -34 -57 -35 -10 0 -25
-11 -32 -25 -12 -25 -12 -25 30 -28 23 -1 49 -5 57 -9 8 -3 61 -7 116 -7 86
-1 101 1 98 14 -2 8 -7 31 -12 50 -13 51 2 90 50 134 83 74 94 77 180 55 42
-11 68 -48 62 -89 -7 -46 -26 -80 -44 -80 -10 0 -28 -9 -41 -19 l-24 -19 25
-10 c14 -6 45 -18 68 -27 l44 -18 -69 -36 c-104 -55 -171 -106 -307 -236 -63
-59 -130 -105 -176 -121 l-35 -12 -3 -272 -2 -271 46 33 c66 47 113 104 157
189 20 41 37 78 37 83 0 11 29 73 128 275 88 181 144 246 254 301 63 30 74 32
164 32 53 -1 99 -4 102 -7 3 -3 -24 -5 -59 -5 -121 0 -214 -40 -291 -125 -70
-76 -117 -300 -93 -440 12 -71 48 -179 73 -220 32 -50 104 -118 162 -152 25
-14 47 -29 50 -33 9 -12 114 -58 200 -88 123 -42 149 -49 205 -58 28 -4 57 -9
65 -10 128 -25 418 -25 610 1 19 2 59 7 89 11 30 3 63 8 75 10 12 2 41 6 66 9
25 3 52 7 60 10 8 2 35 6 60 9 25 3 56 8 70 11 14 3 41 8 60 11 19 2 58 9 85
15 28 5 70 12 95 15 25 3 52 7 60 9 94 27 486 26 582 -1 16 -5 42 -11 86 -20
99 -20 391 -102 449 -125 16 -6 37 -15 48 -19 11 -5 40 -17 65 -27 25 -11 81
-34 125 -53 44 -18 89 -37 100 -41 11 -5 69 -25 130 -45 164 -54 240 -64 455
-59 215 5 324 22 145 22 -266 1 -476 45 -702 149 -17 8 -34 14 -38 14 -9 0
-275 133 -320 160 -24 14 -152 71 -320 140 -11 5 -40 15 -65 23 -144 46 -202
61 -290 74 -70 10 -428 10 -500 0 -106 -15 -226 -38 -300 -58 -164 -45 -387
-100 -420 -105 -19 -3 -44 -8 -55 -11 -11 -3 -31 -7 -45 -8 -14 -2 -54 -7 -90
-11 -136 -16 -307 -7 -470 26 -30 6 -65 13 -77 16 -40 8 -197 66 -243 89 -212
109 -314 296 -282 516 35 241 201 365 417 311 72 -18 75 -20 173 -130 25 -29
34 -34 41 -23 31 49 -94 177 -197 200 -36 8 -37 8 -12 18 45 18 135 -26 203
-101 72 -78 97 -217 57 -316 -12 -30 -23 -80 -25 -110 l-3 -55 23 28 c32 36
66 147 69 223 2 44 -4 84 -21 139 -20 64 -33 86 -76 129 -29 29 -63 59 -76 67
-20 13 -21 15 -5 16 11 0 30 4 44 8 14 4 61 10 105 12 63 4 86 2 111 -12 27
-14 38 -15 64 -6 21 7 93 9 199 7 150 -4 171 -6 221 -29 31 -14 82 -27 115
-31 33 -3 81 -9 106 -14 26 -5 58 -8 73 -6 36 4 133 52 140 70 14 35 17 156 6
206 -6 29 -13 67 -15 83 -5 38 -34 102 -86 185 -43 68 -79 138 -79 152 0 5
-12 27 -26 49 -14 23 -32 65 -40 94 -21 83 -86 177 -193 281 -31 31 -55 45
-85 49 -62 11 -86 27 -178 118 -69 69 -91 85 -123 90 -22 4 -58 16 -80 28 -40
22 -108 30 -155 19z"/>
<path d="M6364 5271 c-163 -46 -246 -145 -247 -295 0 -86 23 -144 78 -199 46
-45 109 -75 241 -118 167 -53 204 -81 200 -151 -5 -69 -71 -106 -155 -87 -40
9 -91 59 -91 88 0 26 -8 27 -150 26 l-125 0 3 -40 c8 -121 116 -230 269 -270
170 -44 366 6 454 117 49 63 64 107 64 198 0 64 -5 83 -28 122 -47 81 -101
116 -280 180 -131 46 -167 64 -189 92 -20 24 -23 84 -5 107 55 71 199 38 212
-50 2 -14 22 -16 142 -19 l140 -3 -7 43 c-21 134 -113 225 -265 265 -53 13
-203 10 -261 -6z"/>
<path d="M3578 5272 c-13 -3 -15 -65 -15 -528 l0 -524 296 2 296 3 0 95 0 95
-140 2 c-77 1 -152 2 -167 2 l-28 1 0 428 0 427 -113 0 c-63 0 -120 -1 -129
-3z"/>
<path d="M4407 5268 c-7 -4 -10 -118 -10 -350 1 -282 4 -356 17 -407 52 -203
223 -314 459 -298 218 15 372 148 401 347 10 68 7 703 -3 709 -7 5 -217 6
-241 2 -3 -1 -6 -148 -6 -328 0 -181 -4 -345 -8 -365 -8 -46 -49 -96 -93 -114
-48 -21 -130 -17 -179 7 -32 15 -48 32 -65 67 -22 45 -23 55 -23 389 -1 221
-5 343 -11 344 -44 5 -229 3 -238 -3z"/>
<path d="M5593 5272 l-22 -3 0 -525 0 -524 130 0 129 0 0 525 c0 289 -3 525
-7 526 -22 3 -211 4 -230 1z"/>
<path d="M3627 3885 c-93 -24 -174 -102 -196 -192 -15 -57 -5 -148 20 -197 51
-99 133 -149 245 -150 162 -1 276 112 277 274 1 111 -52 198 -147 245 -62 30
-132 38 -199 20z m135 -146 c57 -23 77 -137 35 -200 -41 -62 -132 -69 -186
-14 -23 22 -26 34 -26 94 0 55 4 74 20 91 40 45 92 55 157 29z"/>
<path d="M1915 3871 c-152 -69 -200 -284 -96 -428 68 -93 226 -127 336 -71 67
35 113 89 128 149 l7 26 -78 1 c-72 1 -79 -1 -107 -28 -68 -64 -163 -31 -183
63 -18 92 31 167 110 167 32 0 46 -6 68 -30 27 -29 32 -30 110 -30 80 0 81 0
74 23 -21 70 -72 128 -138 158 -56 25 -176 25 -231 0z"/>
<path d="M2511 3862 c-6 -15 -40 -108 -76 -207 -36 -99 -76 -208 -89 -242
l-24 -63 83 0 82 0 12 43 12 43 91 -1 c97 0 98 0 118 -57 9 -27 11 -28 89 -28
l80 0 -40 113 c-23 61 -60 166 -84 233 -24 66 -50 137 -59 157 l-15 36 -84 0
c-83 0 -85 -1 -96 -27z m143 -303 c-2 -4 -74 -5 -95 0 -3 0 6 36 20 80 l26 78
26 -76 c15 -42 25 -79 23 -82z"/>
<path d="M2930 3619 l0 -271 178 4 c168 3 179 4 211 27 80 57 79 177 -3 230
-28 19 -28 19 -7 30 50 27 73 108 46 166 -10 19 -34 45 -54 57 -33 21 -49 23
-203 25 l-168 3 0 -271z m258 137 c16 -5 22 -15 22 -36 0 -16 -5 -32 -11 -36
-20 -12 -108 -12 -112 0 -3 10 -2 61 2 76 2 8 72 6 99 -4z m10 -200 c16 -5 22
-15 22 -36 0 -37 -23 -50 -88 -50 l-49 0 3 48 c1 26 3 47 3 48 5 4 91 -4 109
-10z"/>
<path d="M4191 3880 c-5 -3 -8 -124 -8 -269 l0 -263 151 4 c167 4 199 13 261
74 57 55 79 116 77 210 -2 110 -69 198 -177 234 -40 13 -287 22 -304 10z m280
-151 c36 -25 51 -59 51 -117 0 -78 -56 -129 -140 -128 l-47 1 -2 137 -2 137
55 -4 c35 -2 66 -12 85 -26z"/>
<path d="M4743 3618 l0 -268 74 0 c83 0 75 -14 74 122 0 37 4 70 8 73 5 2 21
-19 36 -48 14 -28 38 -73 52 -99 l26 -48 84 0 84 0 -18 33 c-10 17 -21 34 -25
35 -5 2 -8 8 -8 12 0 5 -16 35 -35 66 l-34 58 37 22 c68 41 96 129 66 204 -36
87 -76 102 -270 104 l-151 2 0 -268z m265 130 c41 -53 10 -98 -68 -98 l-50 0
1 55 2 55 52 0 c30 0 57 -5 63 -12z"/>
<path d="M5243 3618 l0 -268 74 0 c51 0 73 4 73 13 1 19 1 480 1 502 -1 19 -7
21 -74 20 l-74 0 0 -267z"/>
<path d="M5517 3670 c41 -118 83 -237 92 -265 l18 -50 97 -3 c72 -2 97 1 101
10 2 7 43 125 90 262 47 137 82 252 79 255 -3 3 -39 6 -79 6 -71 0 -74 -1 -80
-25 -3 -14 -16 -59 -29 -100 -13 -41 -36 -115 -51 -163 -15 -49 -29 -87 -30
-85 -5 4 -45 128 -85 258 -18 58 -35 107 -37 110 -2 2 -39 4 -82 5 l-78 1 74
-216z"/>
<path d="M6045 3880 c-1 -3 -2 -123 -2 -268 l0 -262 171 2 170 3 1 45 c2 71 3
70 -101 70 l-93 0 2 47 2 48 78 0 c51 0 80 4 85 12 7 11 8 48 3 96 -1 4 -39 7
-86 7 l-84 0 2 43 3 42 45 2 c24 1 67 2 95 2 l50 1 -2 53 c-1 28 -2 54 -3 57
-1 7 -332 7 -336 0z"/>
<path d="M6478 3882 c-15 -3 -16 -28 -16 -268 l0 -264 74 0 74 0 1 58 c1 31 0
73 -1 93 -2 54 13 54 41 1 14 -26 39 -71 54 -99 l29 -53 83 0 84 0 -24 43
c-13 23 -40 69 -60 101 -33 55 -35 61 -19 72 9 8 23 14 29 14 7 0 25 18 39 40
52 79 32 188 -44 233 -20 12 -43 23 -52 25 -21 5 -271 8 -292 4z m260 -155
c12 -24 11 -31 -2 -53 -14 -20 -24 -24 -71 -24 l-54 0 0 55 0 56 57 -3 c51 -3
58 -6 70 -31z"/>
<path d="M1442 3316 c-63 -81 -19 -222 99 -316 123 -97 366 -184 574 -205 17
-2 62 -7 100 -11 126 -13 441 -7 545 10 14 3 45 7 70 10 47 6 63 9 145 26 28
6 61 12 75 15 21 4 72 15 90 20 3 1 33 8 68 15 34 8 62 17 62 21 0 4 -17 3
-37 -1 -40 -9 -98 -17 -173 -26 -25 -2 -58 -6 -75 -9 -220 -30 -558 -25 -737
11 -13 2 -36 7 -53 9 -16 3 -44 10 -61 16 -17 5 -40 11 -50 14 -50 10 -163 58
-225 95 -84 50 -188 145 -223 203 -37 63 -97 117 -138 123 -29 5 -38 2 -56
-20z"/>
</g>
</svg>
